# Blender v2.63 (sub 0) OBJ File: 'quit.blend'
# www.blender.org
mtllib blob_obj.mtl
o Cube_Cube.001
v -0.998926 -0.985085 1.003300
v -0.998926 -0.985085 -0.996700
v 1.001074 -0.985085 -0.996700
v 1.001074 -0.985085 1.003300
v -0.998926 1.014915 1.003300
v -0.998926 1.014915 -0.996700
v 1.001074 1.014915 -0.996700
v 1.001074 1.014915 1.003300
vt 1.000000 1.000000
vt 0.000000 1.000000
vt 0.000000 0.000000
vt 1.000000 0.000000
vn -1.000000 -0.000000 0.000000
vn 0.000000 0.000000 -1.000000
vn 1.000000 -0.000000 0.000000
vn 0.000000 0.000000 1.000000
vn -0.000000 -1.000000 0.000000
vn -0.000000 1.000000 0.000000
usemtl _brick_texture.jpg
s off
f 2/1/1 1/2/1 5/3/1
f 2/1/1 5/3/1 6/4/1
f 6/3/2 7/4/2 3/1/2
f 6/3/2 3/1/2 2/2/2
f 7/3/3 8/4/3 4/1/3
f 7/3/3 4/1/3 3/2/3
f 1/1/4 4/2/4 8/3/4
f 1/1/4 8/3/4 5/4/4
f 1/3/5 2/4/5 3/1/5
f 1/3/5 3/1/5 4/2/5
f 8/3/6 7/4/6 6/1/6
f 8/3/6 6/1/6 5/2/6
